<mxfile host="app.diagrams.net" modified="2023-04-27T03:41:25.077Z" agent="5.0 (Macintosh; Intel Mac OS X 10_15_7) AppleWebKit/537.36 (KHTML, like Gecko) Chrome/112.0.0.0 Safari/537.36" etag="OnGHXLq3E6hiphRKw6zp" version="20.1.1" type="github">
  <diagram name="Page-1" id="5f0bae14-7c28-e335-631c-24af17079c00">
    <mxGraphModel dx="1426" dy="768" grid="1" gridSize="10" guides="1" tooltips="1" connect="1" arrows="1" fold="1" page="1" pageScale="1" pageWidth="1100" pageHeight="850" background="none" math="0" shadow="0">
      <root>
        <mxCell id="0" />
        <mxCell id="1" parent="0" />
        <mxCell id="39150e848f15840c-1" value="" style="verticalAlign=top;align=left;spacingTop=8;spacingLeft=2;spacingRight=12;shape=cube;size=10;direction=south;fontStyle=4;html=1;rounded=0;shadow=0;comic=0;labelBackgroundColor=none;strokeWidth=1;fontFamily=Verdana;fontSize=12;fillColor=#f8cecc;strokeColor=#b85450;" parent="1" vertex="1">
          <mxGeometry x="120" y="70" width="840" height="470" as="geometry" />
        </mxCell>
        <mxCell id="Qz5NKkkaA_bonIuyAQJE-8" style="edgeStyle=orthogonalEdgeStyle;rounded=0;orthogonalLoop=1;jettySize=auto;html=1;exitX=1;exitY=0.5;exitDx=0;exitDy=0;entryX=0.089;entryY=0.5;entryDx=0;entryDy=0;entryPerimeter=0;" edge="1" parent="1" source="39150e848f15840c-6" target="Qz5NKkkaA_bonIuyAQJE-3">
          <mxGeometry relative="1" as="geometry">
            <Array as="points">
              <mxPoint x="200" y="150" />
              <mxPoint x="200" y="210" />
            </Array>
          </mxGeometry>
        </mxCell>
        <mxCell id="39150e848f15840c-6" value="" style="ellipse;whiteSpace=wrap;html=1;rounded=0;shadow=0;comic=0;labelBackgroundColor=none;strokeWidth=1;fontFamily=Verdana;fontSize=12;align=center;" parent="1" vertex="1">
          <mxGeometry x="160" y="140" width="20" height="20" as="geometry" />
        </mxCell>
        <mxCell id="Qz5NKkkaA_bonIuyAQJE-1" value="MongoDb" style="shape=cylinder3;whiteSpace=wrap;html=1;boundedLbl=1;backgroundOutline=1;size=15;" vertex="1" parent="1">
          <mxGeometry x="715" y="410" width="60" height="80" as="geometry" />
        </mxCell>
        <mxCell id="Qz5NKkkaA_bonIuyAQJE-18" value="" style="edgeStyle=orthogonalEdgeStyle;rounded=0;orthogonalLoop=1;jettySize=auto;html=1;dashed=1;strokeWidth=3;" edge="1" parent="1" source="Qz5NKkkaA_bonIuyAQJE-2" target="Qz5NKkkaA_bonIuyAQJE-5">
          <mxGeometry relative="1" as="geometry" />
        </mxCell>
        <mxCell id="Qz5NKkkaA_bonIuyAQJE-2" value="Kafka Topic" style="shape=component;align=left;spacingLeft=36;rounded=0;shadow=0;comic=0;labelBackgroundColor=none;strokeWidth=1;fontFamily=Verdana;fontSize=12;html=1;" vertex="1" parent="1">
          <mxGeometry x="470" y="350" width="140" height="60" as="geometry" />
        </mxCell>
        <mxCell id="Qz5NKkkaA_bonIuyAQJE-3" value="Transaction Controller" style="shape=component;align=left;spacingLeft=36;rounded=0;shadow=0;comic=0;labelBackgroundColor=none;strokeWidth=1;fontFamily=Verdana;fontSize=12;html=1;" vertex="1" parent="1">
          <mxGeometry x="220" y="180" width="180" height="60" as="geometry" />
        </mxCell>
        <mxCell id="Qz5NKkkaA_bonIuyAQJE-4" value="Transaction Service" style="shape=component;align=left;spacingLeft=36;rounded=0;shadow=0;comic=0;labelBackgroundColor=none;strokeWidth=1;fontFamily=Verdana;fontSize=12;html=1;" vertex="1" parent="1">
          <mxGeometry x="220" y="290" width="180" height="60" as="geometry" />
        </mxCell>
        <mxCell id="Qz5NKkkaA_bonIuyAQJE-15" value="" style="edgeStyle=orthogonalEdgeStyle;rounded=0;orthogonalLoop=1;jettySize=auto;html=1;dashed=1;strokeWidth=3;" edge="1" parent="1" source="Qz5NKkkaA_bonIuyAQJE-5" target="Qz5NKkkaA_bonIuyAQJE-4">
          <mxGeometry relative="1" as="geometry" />
        </mxCell>
        <mxCell id="Qz5NKkkaA_bonIuyAQJE-5" value="Transaction Repository" style="shape=component;align=left;spacingLeft=36;rounded=0;shadow=0;comic=0;labelBackgroundColor=none;strokeWidth=1;fontFamily=Verdana;fontSize=12;html=1;" vertex="1" parent="1">
          <mxGeometry x="220" y="400" width="180" height="60" as="geometry" />
        </mxCell>
        <mxCell id="Qz5NKkkaA_bonIuyAQJE-17" value="" style="edgeStyle=orthogonalEdgeStyle;rounded=0;orthogonalLoop=1;jettySize=auto;html=1;dashed=1;strokeWidth=3;" edge="1" parent="1" source="Qz5NKkkaA_bonIuyAQJE-6" target="Qz5NKkkaA_bonIuyAQJE-12">
          <mxGeometry relative="1" as="geometry" />
        </mxCell>
        <mxCell id="Qz5NKkkaA_bonIuyAQJE-6" value="Account Repository" style="shape=component;align=left;spacingLeft=36;rounded=0;shadow=0;comic=0;labelBackgroundColor=none;strokeWidth=1;fontFamily=Verdana;fontSize=12;html=1;" vertex="1" parent="1">
          <mxGeometry x="660" y="290" width="170" height="60" as="geometry" />
        </mxCell>
        <mxCell id="Qz5NKkkaA_bonIuyAQJE-7" value="HTTP Request" style="text;html=1;strokeColor=none;fillColor=none;align=center;verticalAlign=middle;whiteSpace=wrap;rounded=0;fillStyle=solid;" vertex="1" parent="1">
          <mxGeometry x="140" y="100" width="60" height="30" as="geometry" />
        </mxCell>
        <mxCell id="Qz5NKkkaA_bonIuyAQJE-9" value="" style="endArrow=none;dashed=1;html=1;rounded=0;entryX=0.5;entryY=1;entryDx=0;entryDy=0;exitX=0.5;exitY=0;exitDx=0;exitDy=0;strokeWidth=3;" edge="1" parent="1" source="Qz5NKkkaA_bonIuyAQJE-4" target="Qz5NKkkaA_bonIuyAQJE-3">
          <mxGeometry width="50" height="50" relative="1" as="geometry">
            <mxPoint x="410" y="290" as="sourcePoint" />
            <mxPoint x="460" y="240" as="targetPoint" />
          </mxGeometry>
        </mxCell>
        <mxCell id="Qz5NKkkaA_bonIuyAQJE-13" value="" style="edgeStyle=orthogonalEdgeStyle;rounded=0;orthogonalLoop=1;jettySize=auto;html=1;dashed=1;strokeWidth=3;" edge="1" parent="1" source="Qz5NKkkaA_bonIuyAQJE-12" target="Qz5NKkkaA_bonIuyAQJE-2">
          <mxGeometry relative="1" as="geometry" />
        </mxCell>
        <mxCell id="Qz5NKkkaA_bonIuyAQJE-12" value="Kafka Consumer" style="shape=component;align=left;spacingLeft=36;rounded=0;shadow=0;comic=0;labelBackgroundColor=none;strokeWidth=1;fontFamily=Verdana;fontSize=12;html=1;" vertex="1" parent="1">
          <mxGeometry x="470" y="230" width="140" height="60" as="geometry" />
        </mxCell>
        <mxCell id="Qz5NKkkaA_bonIuyAQJE-16" value="" style="endArrow=none;dashed=1;html=1;rounded=0;entryX=0.5;entryY=1;entryDx=0;entryDy=0;exitX=0.5;exitY=0;exitDx=0;exitDy=0;strokeWidth=3;exitPerimeter=0;" edge="1" parent="1" source="Qz5NKkkaA_bonIuyAQJE-1" target="Qz5NKkkaA_bonIuyAQJE-6">
          <mxGeometry width="50" height="50" relative="1" as="geometry">
            <mxPoint x="744.5" y="400" as="sourcePoint" />
            <mxPoint x="744.5" y="350" as="targetPoint" />
          </mxGeometry>
        </mxCell>
      </root>
    </mxGraphModel>
  </diagram>
</mxfile>
